<svg width="237" height="137" viewBox="0 0 237 137" fill="none" xmlns="http://www.w3.org/2000/svg">
<path d="M4 41.4C4 41.4 30.8 77.2 98.5 88C98.5 88 135.4 92.7 167.1 83.5C221.5 67.6 239.3 84.9 236.7 104.1C231.9 139.2 156.4 145.2 101.4 126.7C50.8 109.7 18.7 76.8 4 41.4Z" fill="#5DA511"/>
<path d="M75.3 74.8C75.3 74.8 45.4 68.8 23.7 51.1C-5.69998 27.1 1.00001 11.4 3.00001 7.09999C4.80001 3.29999 13.6 -5.00001 24.8 5.49999C38.9 18.7 21.8 53.2 75.3 74.8Z" fill="#E07F00"/>
<path d="M85.4 29.1C76.3 29.1 70.9 25.3 70.9 20.1C70.9 18.4 71.5 16.8 72.7 15.5H66.4C65.7 15.5 65.3 15.1 65.3 14.3V10.7C65.3 9.79999 65.6 9.59999 66.4 9.59999H104.4C105.2 9.59999 105.5 9.79999 105.5 10.7V14.4C105.5 15.2 105.1 15.5 104.4 15.5H98C99.2 17 99.9 18.5 99.9 20.1C100 25.3 94.5 29.1 85.4 29.1ZM85.4 58.7C74.2 58.7 68 54.3 68 49C68 43.7 74.2 39.5 85.4 39.5C96.6 39.5 102.8 43.8 102.8 49C102.8 54.3 96.6 58.7 85.4 58.7ZM85.4 45.5C78.7 45.5 75.7 47.3 75.7 49C75.7 50.7 78.7 52.6 85.4 52.6C92.1 52.6 95.1 50.8 95.1 49C95.1 47.4 92.1 45.5 85.4 45.5ZM93.7 7.3H77.2C76.6 7.3 76.1 7.09999 76.1 6.09999V2.3C76.1 1.3 76.6 1.09999 77.2 1.09999H93.7C94.5 1.09999 94.9 1.5 94.9 2.3V5.99999C94.9 6.89999 94.8 7.3 93.7 7.3ZM85.4 15.7C80.8 15.7 78.4 17.7 78.4 19.5C78.4 21.3 80.8 23.3 85.4 23.3C90 23.3 92.4 21.3 92.4 19.5C92.5 17.7 90 15.7 85.4 15.7Z" fill="#5DA511"/>
<path d="M147.9 37.4H129.5V44.5H138.4C141.4 44.5 142 45.5 142 48.7V63.8C142 64.5 141.7 64.9 141 64.9H136C135.2 64.9 134.9 64.5 134.9 63.8V51.7C134.9 51.2 134.6 50.9 134.2 50.9H110C109.4 50.9 109 50.8 109 49.9V45.5C109 44.6 109.5 44.5 110 44.5H122.3V37.4H61.9C61.1 37.4 60.9 37.1 60.9 36.3V32.3C60.9 31.4 60.9 31.1 61.9 31.1H134.5C135.1 27.9 135.5 21.9 135.5 20.5C135.5 19.4 135.4 18.9 134.1 18.9H111C110.3 18.9 109.9 18.8 109.9 17.9V13.5C109.9 12.7 110.3 12.6 111 12.6H138.9C141.4 12.6 142.5 13.6 142.5 16.4C142.5 20.4 142.2 25.8 141.3 31H147.9C148.6 31 149 31.4 149 32.2V36.2C148.9 37.2 148.5 37.4 147.9 37.4Z" fill="#5DA511"/>
<path d="M161.5 36.7V44.9H171.6C172.3 44.9 172.4 45.1 172.4 45.8V49.6C172.4 50.3 172.3 50.5 171.6 50.5H161.5V64C161.5 64.8 161.3 65 160.6 65H156.4C155.7 65 155.5 64.9 155.5 64V32.3C155.5 31.4 155.6 31.2 156.5 31.2H172.2C172.9 31.2 173 31.4 173 32.1V35.9C173 36.6 172.9 36.8 172.2 36.8H161.5V36.7Z" fill="#5DA511"/>
<path d="M202.6 64.5C201.9 64.5 201.8 64.2 201.5 63.9L199.4 61.6C196.8 64.1 193.4 65.2 190 65.2C184.3 65.2 178.9 62.2 178.9 55.5C178.9 51.4 181.7 47.9 185.4 45.8C183.9 43.9 182.2 41.4 182.2 38.6C182.2 33.2 187.5 30.5 191.8 30.5C196.1 30.5 200.2 33.2 200.2 38.3C200.2 41.6 198.1 45 194 47.3L199.3 53.1C200.1 51.6 200.5 49 200.5 47C200.5 46.1 200.5 45.9 201.4 45.9H205.1C206.1 45.9 206.1 45.9 206.1 46.9C206.1 50.2 205 54.6 203.2 57.2L208.6 63.4C209.1 64 209 64.5 208.1 64.5H202.6ZM189 49.8C187 50.8 184.9 53 184.9 55.2C184.9 58.1 187.3 59.8 190.2 59.8C191.8 59.8 194.1 59 195.7 57.5L189 49.8ZM191.6 35.4C189.4 35.4 188 36.7 188 38.5C188 39.5 188.7 41.3 190.4 43.1C192.1 42.3 194.3 40.7 194.3 38.5C194.4 36.9 193.4 35.4 191.6 35.4Z" fill="#E07F00"/>
<path d="M214.8 64.9C214.3 64.9 214 64.9 214 64.1V32.1C214 31.4 214 31.1 214.8 31.1H222.6C229.1 31.1 233.4 34 233.4 40C233.4 43 231.6 45.8 228.7 47.2C232.2 48.5 234.3 51.6 234.3 54.5C234.3 61.2 230.1 64.9 221.6 64.9H214.8ZM219.9 49.8V59.6H221.7C226.9 59.6 228.4 57.5 228.4 54.7C228.4 51.9 226.8 49.8 221.3 49.8H219.9ZM220 36.4V44.9H221.9C226.1 44.9 227.4 42.9 227.4 40.4C227.4 38.3 226.3 36.4 222.7 36.4H220Z" fill="#5DA511"/>
</svg>
