<svg xmlns="http://www.w3.org/2000/svg" id="Livello_1" data-name="Livello 1" viewBox="0 0 490.26 236.76"><defs><style>      .cls-1 {        fill: #ebc7a3;      }    </style></defs><path class="cls-1" d="M96.45,218.33c.09-.75.3-1.48.63-2.18.33-.7.75-1.33,1.27-1.91.51-.57,1.1-1.05,1.77-1.43.66-.38,1.37-.63,2.1-.75.89-.14,1.67-.09,2.34.15.67.24,1.31.61,1.93,1.12l2.81-3.22c-.35-.34-.75-.64-1.18-.9-.43-.26-.91-.46-1.43-.61-.53-.15-1.12-.23-1.78-.26-.66-.03-1.41.02-2.23.15-1.36.21-2.63.64-3.81,1.3-1.18.65-2.23,1.45-3.13,2.41-.91.95-1.65,2.01-2.24,3.18-.59,1.16-.96,2.37-1.11,3.62v.05c-.16,1.25-.07,2.39.24,3.43.32,1.03.83,1.89,1.54,2.57.71.68,1.59,1.17,2.64,1.47,1.05.29,2.22.34,3.52.14.86-.13,1.64-.32,2.34-.57.71-.25,1.36-.56,1.98-.92.61-.37,1.19-.78,1.72-1.24.53-.46,1.06-.97,1.57-1.52l-2.17-2.1c-.77.74-1.52,1.35-2.26,1.83-.74.48-1.62.79-2.62.95-.75.12-1.43.08-2.02-.11-.59-.19-1.08-.51-1.47-.94-.38-.43-.66-.96-.83-1.59-.17-.63-.21-1.32-.12-2.07v-.05Z"></path><path class="cls-1" d="M120.77,205.86l-9.7,18.84,3.95-.62,2.09-4.18,7.45-1.16,1.13,3.68,4.05-.63-5.41-16.48-3.58.56ZM118.91,216.27l3.03-6.05,1.65,5.32-4.68.73Z"></path><polygon class="cls-1" points="134.36 221.06 138.24 220.45 139.07 213.67 147.48 212.35 147.9 208.87 139.49 210.18 139.95 206.4 149.49 204.91 149.92 201.43 136.49 203.53 134.36 221.06"></polygon><polygon class="cls-1" points="152.77 218.19 156.65 217.58 157.48 210.79 165.89 209.48 166.31 206 157.9 207.31 158.36 203.53 167.9 202.04 168.33 198.56 154.9 200.65 152.77 218.19"></polygon><polygon class="cls-1" points="179.97 191.04 176.49 192.98 179.35 195.49 182.27 195.03 179.97 191.04"></polygon><polygon class="cls-1" points="171.18 215.31 184.58 213.22 185 209.79 175.43 211.28 175.88 207.6 184.19 206.3 184.6 202.87 176.29 204.17 176.73 200.61 186.17 199.14 186.59 195.71 173.31 197.78 171.18 215.31"></polygon><path class="cls-1" d="M214.86,193.75c-.74-.66-1.65-1.11-2.75-1.38-1.1-.26-2.33-.29-3.71-.07l-6.88,1.07-2.13,17.53,6.88-1.07c1.38-.21,2.67-.64,3.87-1.27,1.2-.63,2.27-1.4,3.2-2.32.93-.92,1.68-1.94,2.26-3.08s.95-2.33,1.1-3.56v-.05c.16-1.24.07-2.35-.26-3.34-.32-.99-.85-1.81-1.59-2.47ZM212.65,200.24v.05c-.1.79-.32,1.52-.66,2.19-.34.68-.77,1.28-1.28,1.82-.52.54-1.12.99-1.81,1.34-.68.35-1.42.59-2.21.71l-3,.47,1.29-10.57,3-.47c.79-.12,1.5-.11,2.12.05.62.16,1.14.43,1.54.83.4.39.7.9.88,1.51.18.61.23,1.3.13,2.07Z"></path><polygon class="cls-1" points="221.15 207.52 225.03 206.91 227.16 189.38 223.28 189.98 221.15 207.52"></polygon><path class="cls-1" d="M255.67,186.43c-1.04-.84-2.61-1.09-4.71-.76l-8.06,1.26-2.13,17.53,3.88-.6.68-5.61,3.05-.48,3.1,5.02,4.53-.71-3.55-5.59c1.18-.59,2.17-1.39,2.97-2.39.81-1,1.29-2.21,1.47-3.63v-.05c.23-1.82-.18-3.15-1.23-3.99ZM252.95,191.22v.05c-.1.75-.43,1.39-.99,1.92-.57.53-1.33.87-2.29,1.02l-3.93.61.61-5.03,3.85-.6c.96-.15,1.68-.06,2.17.28.49.33.68.92.58,1.75Z"></path><path class="cls-1" d="M278.04,183.74c-.73-.68-1.64-1.17-2.72-1.47-1.08-.3-2.31-.34-3.67-.13-1.36.21-2.64.65-3.85,1.3-1.21.66-2.28,1.46-3.21,2.42-.93.96-1.7,2.02-2.3,3.19-.6,1.17-.98,2.38-1.13,3.63v.05c-.16,1.25-.07,2.39.26,3.41.33,1.02.86,1.87,1.59,2.55.73.68,1.64,1.17,2.73,1.47,1.08.3,2.31.34,3.67.13,1.36-.21,2.64-.65,3.85-1.3,1.21-.66,2.28-1.46,3.21-2.42.93-.96,1.7-2.02,2.3-3.19.6-1.17.98-2.38,1.13-3.63v-.05c.16-1.25.07-2.39-.26-3.41-.33-1.02-.86-1.87-1.59-2.55ZM275.84,190.38v.05c-.1.75-.31,1.48-.65,2.18-.34.7-.77,1.34-1.29,1.91-.52.57-1.13,1.05-1.82,1.44-.69.39-1.42.64-2.19.76-.79.12-1.49.09-2.1-.1-.61-.19-1.12-.5-1.54-.93-.42-.43-.72-.95-.9-1.58-.18-.63-.22-1.32-.13-2.07v-.05c.1-.75.31-1.48.65-2.18.34-.7.77-1.34,1.29-1.91.52-.57,1.12-1.05,1.81-1.44.68-.39,1.42-.64,2.2-.76.77-.12,1.47-.09,2.09.1.62.19,1.14.5,1.55.92.42.43.72.95.9,1.58.18.63.22,1.32.13,2.07Z"></path><polygon class="cls-1" points="294.21 186.19 290.48 179.5 286.3 180.15 284.16 197.68 287.99 197.09 289.37 185.71 293.38 192.36 293.49 192.35 299.36 184.08 297.97 195.53 301.79 194.93 303.93 177.4 299.74 178.05 294.21 186.19"></polygon><path class="cls-1" d="M316.11,175.37l-9.7,18.84,3.95-.62,2.09-4.18,7.46-1.16,1.13,3.68,4.06-.63-5.41-16.48-3.58.56ZM314.25,185.79l3.03-6.05,1.65,5.32-4.68.73Z"></path><path class="cls-1" d="M354.61,171.95c-.74-.66-1.65-1.11-2.75-1.38-1.1-.26-2.33-.29-3.71-.07l-6.88,1.07-2.13,17.53,6.88-1.07c1.38-.21,2.67-.64,3.87-1.27,1.2-.63,2.27-1.4,3.2-2.32.93-.91,1.68-1.94,2.26-3.08.58-1.14.95-2.33,1.1-3.56v-.05c.16-1.24.07-2.35-.26-3.34-.32-.99-.85-1.81-1.59-2.47ZM352.4,178.43v.05c-.1.79-.32,1.51-.66,2.19-.34.67-.76,1.28-1.28,1.82s-1.12.99-1.81,1.34c-.69.35-1.42.59-2.21.71l-3,.47,1.28-10.57,3-.47c.79-.12,1.5-.11,2.12.05.62.16,1.14.43,1.54.83.41.4.7.9.88,1.51.18.61.22,1.3.13,2.07Z"></path><path class="cls-1" d="M368.92,167.13l-9.7,18.84,3.95-.62,2.09-4.18,7.46-1.16,1.13,3.68,4.06-.63-5.41-16.48-3.58.56ZM367.06,177.55l3.03-6.05,1.65,5.32-4.68.73Z"></path><polygon class="cls-1" points="388.52 164.2 384.64 164.8 382.51 182.34 395.18 180.36 395.6 176.88 386.82 178.25 388.52 164.2"></polygon><polygon class="cls-1" points="409.89 162.21 410.31 165.24 413.47 164.01 411.8 177.77 415.63 177.17 417.78 159.51 415.13 159.92 409.89 162.21"></polygon><path class="cls-1" d="M435.72,159.46c-.2-.36-.44-.68-.73-.94-.3-.28-.6-.52-.93-.7-.32-.19-.68-.32-1.06-.41-.38-.09-.81-.13-1.28-.13-.47,0-1,.04-1.59.14-.99.15-1.92.45-2.79.89-.87.44-1.63.98-2.28,1.62-.66.64-1.19,1.37-1.61,2.17-.42.8-.68,1.65-.79,2.53-.11.9-.06,1.68.15,2.34.21.66.56,1.18,1.06,1.58.5.4,1.11.67,1.85.8.74.14,1.59.13,2.55-.02.77-.12,1.47-.33,2.08-.64.61-.31,1.16-.68,1.64-1.12-.28,1.21-.75,2.24-1.42,3.07-.67.83-1.55,1.33-2.64,1.5-.76.12-1.41.1-1.97-.05-.56-.15-1.13-.43-1.7-.85l-2.4,3.24c.68.5,1.45.86,2.31,1.1.86.24,1.94.26,3.23.06,1.26-.2,2.4-.6,3.41-1.22,1.01-.62,1.89-1.39,2.64-2.33.75-.94,1.36-2.02,1.84-3.25.48-1.23.81-2.56.98-4,.11-.87.15-1.64.13-2.31-.02-.67-.09-1.26-.21-1.76-.12-.51-.28-.94-.48-1.3ZM432.63,162.92c-.09.77-.44,1.44-1.03,2.02-.59.58-1.37.94-2.33,1.09-.96.15-1.69.03-2.18-.37-.49-.4-.68-1-.59-1.8.1-.8.44-1.49,1.02-2.06.58-.57,1.35-.94,2.32-1.08.98-.15,1.71-.02,2.2.39.49.42.68,1.02.58,1.82Z"></path><path class="cls-1" d="M454.27,153.81l-3.27.51-11.03,12.66.3,2.63,8.61-1.34-.46,3.78,3.7-.58.46-3.78,2.37-.37.38-3.13-2.37.37,1.31-10.75ZM449.26,165.14l-4.68.73,5.35-6.19-.66,5.46Z"></path><path class="cls-1" d="M465.7,156.42c.34-.41.73-.75,1.16-1.02.44-.27.93-.45,1.49-.54.37-.06.71-.08,1.02-.06.31.02.6.06.87.13.27.07.53.18.78.31.25.13.5.29.76.46l2.4-3.29c-.35-.24-.71-.45-1.09-.62-.37-.18-.77-.32-1.18-.41-.42-.1-.87-.15-1.37-.15-.49,0-1.04.04-1.65.13-1.31.2-2.48.63-3.52,1.27-1.03.65-1.92,1.45-2.66,2.41-.74.96-1.34,2.05-1.79,3.27-.45,1.22-.76,2.5-.93,3.85-.21,1.75-.19,3.11.06,4.08s.66,1.72,1.22,2.25c.55.52,1.2.88,1.97,1.07.77.19,1.73.2,2.89.02.96-.15,1.86-.43,2.72-.85.86-.42,1.62-.95,2.28-1.58.66-.64,1.21-1.35,1.64-2.15.43-.8.71-1.65.82-2.55.11-.92.05-1.7-.18-2.35-.23-.65-.6-1.17-1.1-1.55-.5-.38-1.11-.63-1.83-.76s-1.53-.12-2.4.02c-.87.14-1.61.36-2.2.69-.59.32-1.12.66-1.59,1.01.14-.58.32-1.14.55-1.67.23-.53.51-1,.85-1.4ZM464.66,162.18c.59-.56,1.36-.91,2.33-1.06.96-.15,1.69-.03,2.17.37.49.4.69.97.6,1.73-.09.77-.44,1.44-1.02,2-.59.57-1.37.92-2.33,1.07-.96.15-1.69.02-2.17-.39-.49-.41-.68-.99-.59-1.76.09-.75.43-1.41,1.02-1.97Z"></path><path class="cls-1" d="M459.77,101.83c.02-.06.07-.23.1-.34-.02.06-.04.11-.06.17-.01.04-.03.1-.04.16Z"></path><path class="cls-1" d="M482.38,72.65c7.31.29,11.75-15.07,3.25-16.62-8.58-2.06-13.71,17.04-3.25,16.62Z"></path><path class="cls-1" d="M310.95,27.5l.03.04c1.72,2.42,1.94,4.96.67,8-1.49,3.66-5.07,7.74-10.34,11.81-8.26,6.43-19.13,12.08-34.2,17.8-6.45,2.45-13.28,4.72-20.73,6.88-.97.25-13.09,3.42-26.8,6.31v-.02s-14.33,2.76-14.33,2.76l-3.48,15.61,2.15-.4h0s3.19-.56,8.08-1.51h0s0,0,0,0c9.8-1.9,26.41-5.33,37.73-8.78.05-.01.08-.03.13-.04,8.67-2.34,16.71-4.92,24.3-7.82,16.57-6.47,28.41-12.92,38.42-20.93,4.03-3.4,9.07-8.09,12.32-14.3,1.5-3.34,1.97-7.45,1.41-12.58-.69-6.34-3.1-10.19-4.52-11.96-23.81-26.18-108.36-24.18-201.04,4.77C64.08,40.83,24.02,64.52.38,81.27l-.37.26-.02,29.07,1.78-1.56C37.37,77.85,97.47,37.22,181.72,20.8c104.65-20.4,127.03,4.09,129.24,6.71Z"></path><path class="cls-1" d="M406.97,81.61c7.31.29,11.75-15.07,3.25-16.62-8.58-2.06-13.71,17.04-3.25,16.62Z"></path><path class="cls-1" d="M474.9,80.95c-.29.15-.54.42-.88.45-.64,5.6-4.65,18.92-7.28,32.32h0s-1.49,6.87-1.49,6.87c-2.79,3.9-5.39,4.03-5.39,4.03-5.02,0-4.79-4.74-4.56-6.36.62-3.79,2.07-8.38,3.29-12.25.03-.02.01-.01,0,0,.15-.59.94-3.3,1.17-4.17-.02.05-.01.03.04-.16.1-.32.09-.29.06-.17,7.37-20.96-9.36-24.97-21.68-12.35-1.28,1.17-2.77,2.57-3.81,3.65l-.44.42,1.72-7.67-11.82,1.94-.36,1.4c-.11.38-.24.88-.38,1.47l-.02.06h0c-1.22,5.07-5,21.35-6.6,28.24-1.71,6.47-3.44,11.51-4.82,11.94-.01.07-.02.15,0,0-6.08,7.34-12.2.88-8.73-9.7.03-3.94,5.81-24.42,8.25-32.25l-13.3,1.98s-5.74,6.7-17.56,13.01c-.11-.11-.2-.23-.26-.38-4.46-10.69-12.8-12.02-24.3-7.25l8.76-40.01-13.88,1.03-18.31,80.39-.72,3.1s-1.46,5.09-6.24,5.09c-4.44,0-5-4.59-4.49-7.66.03-.17.06-.34.1-.52,0-.04.01-.08.02-.11.77-3.83,2.15-8.19,3.34-11.95h0c.02-.07.04-.14.07-.21.09-.29.18-.58.27-.87.03-.1.07-.21.1-.32.12-.39.25-.78.36-1.16,0-.03.02-.06.03-.09.1-.33.2-.65.29-.97.03-.09.05-.18.08-.26.1-.34.2-.67.29-.99h-.13c.19-.54.37-1.07.53-1.6.04-.12.07-.24.11-.36.16-.51.3-1.01.43-1.5.02-.06.03-.12.05-.19.12-.45.22-.89.31-1.32.02-.1.04-.19.06-.29.1-.47.18-.92.25-1.37.01-.08.02-.15.03-.23.06-.41.11-.82.16-1.21,0-.06.01-.12.02-.17.04-.43.07-.85.09-1.27,0-.07,0-.14,0-.21.03-.84,0-1.63-.07-2.39,0-.05,0-.1-.01-.14-.08-.77-.21-1.49-.39-2.16,0-.02-.01-.04-.02-.06-2.91-10.9-17.96-9.53-28.29,3.94-.41.61-1.18.28-1.29-.38-3.51-13.64-17.15-8.61-27.04,2.02-.1.11-.21.17-.32.2l-1.3,1.24.4-2.23s0-.05,0-.07c.02-.35.61-3.41.96-5.29l.24-1.32-13.5,1.98s-2.93,13.7-3.79,17.17c-.44.76-2.15,3.3-5.08,4.99-.27.15-.9.48-1.78.85-.21.08-.41.16-.63.22v.03c-.97.37-2.15.74-3.46.98v-1.81c-.41-4.06-1.58-7.87-3.38-11.04-.05-.16-.15-.34-.31-.54,0,0,0,0,0-.01-1.22-2.02-2.71-3.76-4.44-5.12-2.4-2.09-5.79-3.89-10.58-3.64-9.25.48-15.65,5.95-15.65,5.95-6.9,5.32-14.42,15.95-17.66,37.2-1.38,3.41-2.86,6.66-4.57,9.6-1.67,2.57-4.01,5.09-6.75,5.09-5.97.08-3.34-11.64-3.34-11.64l19.62-86.84-14.55.97-3.69,16.35c-.05.2-.07.31-.07.31l-2.89,12.76s-.01.07-.02.11l-8.67,38.37c-8.1,29.26-16.15,41.53-20.88,34.03-1.17-1.85-1.51-4.1-1.09-6.25.12-.62.26-1.33.42-2.12l11.63-45.07-1.29.12v-.02s-4.33.43-4.33.43h0s-8.27.83-8.27.83l-2.35,7.01s-.91-1.09-2.48-2.35c-.06-.04-.11-.08-.16-.12-.11-.1-.23-.18-.34-.28-1.77-1.34-4.22-2.76-7.09-3.26-7.41-1.19-15.48,3.48-21.96,10.65,0,0-9.93,10.01-14.12,28-.38,1.52-.68,3.02-.9,4.49,0,.01,0,.03,0,.04h0s0,0,0,0h0s-5.73,30.83,14.17,29.34v-.02c4.35.23,9.33-1.95,14.47-7.4h0s.1-.11.1-.11c.67-.72,1.35-1.49,2.02-2.32l3.64-4.18s0,0,.01,0c.05.1,1.86,3.97,3.93,6.11.05.05.09.1.14.14.05.04.09.09.13.14.02.02.04.04.06.06,4.13,3.91,10.44,2.43,16.14-1.56,0,0,.01,0,.02-.01.43-.29.88-.62,1.33-.98,1.69-1.32,3.3-2.84,4.76-4.49,2.24-2.36,3.94-4.46,4.04-4.58,0,0,0,0,.01,0,.1.21,2.79,5.78,4.83,7.02,0,0,0,0,0,0,4.77,3.92,12.14,1.52,18.62-3.57h0s0,0,.01,0c.14-.11.28-.22.42-.34.04-.03.07-.06.11-.09,1.97-1.61,3.84-3.45,5.52-5.44,2.94-3.31,5.06-6.31,5.08-6.33,0,0,0,0,0,0,1.27,2.69,3.26,5.53,3.26,5.53h0c3.61,5.31,9.38,6.92,15.5,5.91,0,0,0,0-.01,0,22.06-2.3,28.58-26.85,29.52-30.92,1.19-1.89,3.85-2.51,5.78-4.13,0,0,.34-.03.74-.18l3.51-1.88-.43,2.01c0,.11,0,.22-.02.34,0,0-.14.58-.36,1.43h0c-.59,2.38-1.72,6.9-1.72,6.9-1.7,6.86-4.32,17.07-5.33,21.12l14.28-2.3s7.08-45.98,22.05-53.73c2.16-.45,3.06.95,3.53,3.03.47,2.08.4,4.24-.08,6.31l-8.12,41.89h0s14.22-2.26,14.22-2.26l6.63-32.55c.69-2.29,1.41-4.29,2.14-5.81,3.07-12.12,19.5-22.24,14.87-4.17-3.42,11.93-15.96,53.21,11.8,35.64h0s2.68-1.31,5.45-4.25l-.84,3.61s0,0,0,0l-.4,1.74c2.34-.55,12.69-2.13,15.27-2.54l.68-3.49.4-1.85c1.01.99,5.7,4.86,15.4,2.78,0,0,0,0,0,0,0,0,0,0,0,0,19.14-3.76,21.49-22.8,22.84-36.95.08-.82.12-1.91.15-2.9,5.91-3,9.41-5.68,11.22-7.3l-1.54,5.48c-.06.23-.13.47-.2.72l-.65,2.3c-1.61,6.95-2.88,14.43-3.07,21.72,1.47,12.19,13.04,12.02,21.32,5.35,0-.03.01-.05.02-.08.7-.55,1.43-1.18,2.16-1.88l-1.11,4.44,11.72-1.83s0,0,0,0l.15-.02c1.05-5.54,6.21-31.4,13.93-41.97,0,.06,0,.12,0,.18,5.08-7.56,14.09-10.94,10.71,2.25-3.05,10.63-14.09,47,9.48,33.04.02-.01.04-.02.06-.03,1.71-.92,4.11-2.58,6.44-4.29l-1.02,4.68c4-.91,8.99-1.11,12.99-2l12.04-53.54c-3.31.48-8.99,1.23-12.3,1.71.02-.11.04-.22.06-.33ZM134.4,139.82s0,0,0,.01c-3.43,11.66-6.12,24.5-13.63,34.1-1.61,2.06-3.89,3.52-6.46,3.97-12.67,2.21-6.79-23.82,2.23-39.31.07-.11.14-.23.21-.35.37-.63.75-1.23,1.13-1.82,4.66-6.96,9.61-7.23,10.16-7.24.72-.01,1.43.1,2.1.35,0,0,.01,0,.02,0,3.05,1.17,4.63,3.92,5.38,5.76l-1.14,4.52ZM232.71,130.35c-5.23,5.4-4.41,11.61-4.55,17.51h0s-2.38,15.93-14.99,15.93c-11.38-1.7-5.77-26.72,2.95-38.89h0c2.31-3.34,4.41-5.15,5.92-6.12.47-.33.96-.59,1.48-.81.56-.24.88-.3.88-.3,0,0,0,0,0,0,1.85-.51,3.85-.31,5.55.62,1.34.83,4.41,3.71,2.76,12.06ZM357.69,102.8c6.32-5.5,9.54-2.34,10.52,4.1.1.65-.33,1.27-.98,1.38-6.19,1.31-12.28.47-9.54-5.47ZM366.93,125.58s0,0,0,.01c-1.41,6.02-3.94,11.55-6.88,14.91-.94.91-2.79,2.3-5.36,2.3-2.65.21-4.5-1.07-5.74-2.58-.78-1.17-1.52-2.64-2.21-4.46.6-3.19,3.29-14.71,4.1-18.19h0s0,0,0,0c.14-.59.22-.95.23-1,0,0,0,0,0,0l.45-1.87s.43,1.43,1.8,2.7c.07.03.11.06.11.06.88.79,1.88,1.29,2.94,1.6.05.01.1.03.15.04.06.02.12.03.18.04,1.46.33,3.14.37,4.78.28.73-.06,1.45-.14,2.11-.23h0s.02.02.02.02c1.46-.19,2.75-.44,3.68-.66h0s0,0,0,0c.38-.09.7-.17.94-.24,0,0-.57,4.55-1.29,7.26Z"></path><path class="cls-1" d="M108.96,107.72l-.02-.02c4.13-.1,8.25-.27,12.37-.52,6.08-.48,12.19-.85,18.23-1.65l9.09-1.06,6.21-.73,4.48-.53,3.1-15.04-4.69.64v-.06s0,0,0,0h0c-14.2,2.36-26.49,3.81-36.41,4.69-6.44.64-12.37,1-17.98,1.19-6.34.25-10.13.21-10.13.21.42-2.16,1.19-4.35,1.56-6.51.27-1.62,3.96-15.63,3.96-15.63l-16.5,1.32-2.74,10.12c-.4,1.45-.8,2.94-1.19,4.41l-1.55,5.73c-16.49-1.19-24.73-3.94-24.73-3.94l-1.82,5.19s0,0,0,0l-1.37,3.96-.03.06s0,0,0,0l-1.36,3.93s9.97,2.39,25.81,3.7l-34.25,129.55,5.11-.95s0,0,0,0l3.78-.71h0s14.59-2.74,14.59-2.74c0,0,27.82-124.59,27.9-124.45,5.45.07,12.01.02,18.56-.2ZM89.71,108.31l.64-.2c-.31.11-.63.22-.64.2Z"></path></svg>